<svg xmlns="http://www.w3.org/2000/svg" width="1200" height="630" viewBox="0 0 1200 630">
  <defs>
    <linearGradient id="bg" x1="0" y1="0" x2="1" y2="1">
      <stop offset="0%" stop-color="#0f2b24"/>
      <stop offset="100%" stop-color="#2f6b5e"/>
    </linearGradient>
    <linearGradient id="accent" x1="0" y1="0" x2="1" y2="0">
      <stop offset="0%" stop-color="#63e3b9"/>
      <stop offset="100%" stop-color="#c9efe2"/>
    </linearGradient>
    <radialGradient id="glow" cx="0.85" cy="0.2" r="0.6">
      <stop offset="0%" stop-color="#63e3b9" stop-opacity="0.35"/>
      <stop offset="70%" stop-color="#63e3b9" stop-opacity="0"/>
    </radialGradient>
  </defs>

  <rect width="1200" height="630" fill="url(#bg)"/>
  <rect width="1200" height="630" fill="url(#glow)"/>

  <g opacity="0.08" stroke="#63e3b9" stroke-width="1" fill="none">
    <circle cx="980" cy="130" r="40"/>
    <circle cx="980" cy="130" r="80"/>
    <circle cx="980" cy="130" r="130"/>
    <circle cx="980" cy="130" r="200"/>
  </g>

  <g transform="translate(80,100)">
    <rect width="64" height="64" rx="16" fill="url(#accent)"/>
    <path d="M24 32 L30 22 L30 30 L40 30 L34 42 L34 34 L24 34 Z" fill="#0f2b24"/>
  </g>

  <text x="160" y="148" font-family="Manrope, 'Apple SD Gothic Neo', sans-serif" font-size="34" font-weight="700" fill="#ffffff">Signal Note</text>
  <text x="160" y="180" font-family="Inter, sans-serif" font-size="18" font-weight="500" fill="#c9efe2" opacity="0.85">AI Tech Daily</text>

  <text x="80" y="300" font-family="Manrope, 'Apple SD Gothic Neo', sans-serif" font-size="68" font-weight="800" fill="#ffffff">
    <tspan x="80" dy="0">AI 엔지니어의 하루는</tspan>
    <tspan x="80" dy="86">첫 1시간에 정해집니다.</tspan>
  </text>

  <text x="80" y="500" font-family="Inter, 'Apple SD Gothic Neo', sans-serif" font-size="26" font-weight="500" fill="#c9efe2" opacity="0.9">
    매일 아침 6시 30분, 관심 키워드에 맞춘
  </text>
  <text x="80" y="534" font-family="Inter, 'Apple SD Gothic Neo', sans-serif" font-size="26" font-weight="500" fill="#c9efe2" opacity="0.9">
    AI 뉴스 · 논문 · 오픈소스를 한 통의 메일로.
  </text>

  <g transform="translate(80,580)" font-family="Inter, sans-serif" font-size="16" font-weight="500" fill="#63e3b9">
    <circle cx="6" cy="-4" r="6" fill="#63e3b9"/>
    <text x="22" y="0">9 sources · 49 keyword groups · 매일 아침 6:30</text>
  </g>
</svg>
